<svg width="33" height="32" viewBox="0 0 33 32" fill="none" xmlns="http://www.w3.org/2000/svg">
<path d="M29.6562 5.23128L17.6562 0.231278C17.2907 0.0796402 16.8989 0.00158691 16.5031 0.00158691C16.1074 0.00158691 15.7155 0.0796402 15.35 0.231278L3.35 5.23128C2.23125 5.69378 1.5 6.78753 1.5 8.00003C1.5 20.4063 8.65625 28.9813 15.3438 31.7688C16.0813 32.075 16.9125 32.075 17.65 31.7688C23.0062 29.5375 31.5 21.8313 31.5 8.00003C31.5 6.78753 30.7687 5.69378 29.6562 5.23128ZM16.5063 27.8938L16.5 4.08128L27.4937 8.66253C27.2875 18.125 22.3625 24.9813 16.5063 27.8938Z" fill="white"/>
</svg>
